# xmcd
#
# Track frame offsets:
#	150
#	19705
#	31555
#	47742
#	63072
#	77630
#	94325
#	108372
#	128342
#	145297
#	159934
#	175680
#	193822
#	213457
#	230212
#
# Disc length: 3326
#
# Revision: 1
# Processed by: cddbd v1.5.1PL0 Copyright (c) Steve Scherf et al.
# Submitted via: audiograbber 1.82.02
# Normalized: r0:DSETVAR1
#
DISCID=bc0cfc0f
DTITLE=Various Artist - SC-8549
DYEAR=1900
DGENRE=Instrumental
TTITLE0=White, Bryan - You're Still Beautiful To Me
TTITLE1=Reeves, Julie - Touble Is A Woman
TTITLE2=Montgomery Gentry - Lonely And Gone
TTITLE3=Tippin, Aaron - Her
TTITLE4=Petrone, Shana - This Time
TTITLE5=Twain, Shania - You've Got A Way
TTITLE6=Peterson, Michael - Sure Feels Real Good
TTITLE7=Church, Claudia - Home In My Heart (North Carolina)
TTITLE8=Wilkinsons, The - Yodelin' Blues, The
TTITLE9=Prosser, James - Angels Don't Fly
TTITLE10=Andrews, Jessica - You Go First
TTITLE11=Sons Of The Desert - Albuquerque
TTITLE12=Barry, John - Love Is For Giving
TTITLE13=Wariner, Steve - I'm Already Taken
TTITLE14=McAnally, Shane - Are Your Eyes Still Blue?
EXTD=
EXTT0=
EXTT1=
EXTT2=
EXTT3=
EXTT4=
EXTT5=
EXTT6=
EXTT7=
EXTT8=
EXTT9=
EXTT10=
EXTT11=
EXTT12=
EXTT13=
EXTT14=
PLAYORDER=
